<svg width="15" height="15" viewBox="0 0 15 15" fill="none" xmlns="http://www.w3.org/2000/svg">
            <path d="M13.961 7.51971L8.20396 13.2767C7.4048 14.0553 6.33112 14.4878 5.21539 14.4806C4.09967 14.4733 3.0317 14.0269 2.24275 13.2379C1.45379 12.449 1.00735 11.381 1.00009 10.2653C0.99283 9.14955 1.42534 8.07587 2.20396 7.27671L8.13296 1.34771C8.66339 0.817281 9.38281 0.519287 10.133 0.519287C10.8831 0.519287 11.6025 0.817281 12.133 1.34771C12.6634 1.87815 12.9614 2.59757 12.9614 3.34771C12.9614 4.09786 12.6634 4.81728 12.133 5.34771L6.37496 11.1057C6.10974 11.3709 5.75003 11.5199 5.37496 11.5199C4.99988 11.5199 4.64017 11.3709 4.37496 11.1057C4.10974 10.8405 3.96074 10.4808 3.96074 10.1057C3.96074 9.73064 4.10974 9.37093 4.37496 9.10571L9.96096 3.51971" stroke="white" />
</svg>