<svg width="25" height="26" viewBox="0 0 25 26" fill="none" xmlns="http://www.w3.org/2000/svg">
<path d="M16.3675 22.4609C16.3677 23.1271 16.1161 23.7688 15.6631 24.2573C15.2101 24.7458 14.5892 25.045 13.9249 25.095L13.7269 25.1016H11.0862C10.42 25.1018 9.77838 24.8502 9.28988 24.3972C8.80139 23.9442 8.50217 23.3233 8.45221 22.659L8.44561 22.4609H16.3675ZM12.4065 0.015625C14.8029 0.0155855 17.1056 0.946305 18.8288 2.61146C20.5521 4.27661 21.5613 6.54601 21.6435 8.94094L21.6487 9.25781V14.2275L24.0543 19.0387C24.1593 19.2486 24.2119 19.4809 24.2075 19.7155C24.2031 19.9502 24.1418 20.1803 24.0291 20.3862C23.9163 20.592 23.7553 20.7675 23.5599 20.8975C23.3644 21.0275 23.1404 21.1082 22.907 21.1327L22.7552 21.1406H2.05794C1.82314 21.1407 1.59182 21.0838 1.38381 20.9749C1.1758 20.866 0.997302 20.7083 0.863604 20.5153C0.729907 20.3222 0.645001 20.0997 0.616161 19.8667C0.587321 19.6336 0.615408 19.3971 0.698015 19.1773L0.758749 19.0387L3.16436 14.2275V9.25781C3.16436 6.80663 4.13809 4.45585 5.87133 2.7226C7.60458 0.989353 9.95537 0.015625 12.4065 0.015625Z" fill="#10A0B6"/>
</svg>
