<svg width="34" height="34" viewBox="0 0 34 34" fill="none" xmlns="http://www.w3.org/2000/svg">
            <circle cx="17" cy="17" r="16.5" stroke="white" />
            <path d="M22.5381 10.6552L22.5385 10.6556C22.7232 10.8403 22.7232 11.1637 22.5385 11.3485L17.6485 16.2385L17.2949 16.592L17.6485 16.9456L22.5385 21.8356C22.5846 21.8817 22.6212 21.9365 22.6462 21.9968C22.6712 22.0571 22.684 22.1217 22.684 22.187C22.684 22.2523 22.6712 22.3169 22.6462 22.3772C22.6212 22.4375 22.5846 22.4923 22.5385 22.5385C22.4923 22.5846 22.4375 22.6212 22.3772 22.6462C22.3169 22.6712 22.2523 22.684 22.187 22.684C22.1217 22.684 22.0571 22.6712 21.9968 22.6462C21.9365 22.6212 21.8817 22.5846 21.8356 22.5385L16.9456 17.6485L16.592 17.2949L16.2385 17.6485L11.3485 22.5385C11.3023 22.5846 11.2475 22.6212 11.1872 22.6462C11.1269 22.6712 11.0623 22.684 10.997 22.684C10.9317 22.684 10.8671 22.6712 10.8068 22.6462C10.7465 22.6212 10.6917 22.5846 10.6456 22.5385C10.5994 22.4923 10.5628 22.4375 10.5378 22.3772C10.5129 22.3169 10.5 22.2523 10.5 22.187C10.5 22.1217 10.5129 22.0571 10.5378 21.9968C10.5628 21.9365 10.5994 21.8817 10.6456 21.8356L15.5356 16.9456L15.8891 16.592L15.5356 16.2385L10.6456 11.3485C10.5994 11.3023 10.5628 11.2475 10.5378 11.1872C10.5129 11.1269 10.5 11.0623 10.5 10.997C10.5 10.9318 10.5129 10.8671 10.5378 10.8068C10.5628 10.7465 10.5994 10.6917 10.6456 10.6456C10.6917 10.5994 10.7465 10.5628 10.8068 10.5378C10.8671 10.5129 10.9318 10.5 10.997 10.5C11.0623 10.5 11.1269 10.5129 11.1872 10.5378C11.2475 10.5628 11.3023 10.5994 11.3485 10.6456L16.2385 15.5356L16.5917 15.8888L16.9452 15.5359L21.8352 10.6559L21.8359 10.6552C21.882 10.609 21.9367 10.5724 21.997 10.5474C22.0572 10.5224 22.1218 10.5096 22.187 10.5096C22.2522 10.5096 22.3168 10.5224 22.3771 10.5474C22.4373 10.5724 22.492 10.609 22.5381 10.6552Z" fill="#10A0B6" stroke="white" />
</svg>