
<svg width="19" height="19" viewBox="0 0 19 19" fill="none" xmlns="http://www.w3.org/2000/svg">
<mask id="path-1-outside-1_135_7457" maskUnits="userSpaceOnUse" x="0" y="4" width="15" height="15" fill="black">
<rect fill="white" y="4" width="15" height="15"/>
<path d="M4 5H3C2.46957 5 1.96086 5.21071 1.58579 5.58579C1.21071 5.96086 1 6.46957 1 7V16C1 16.5304 1.21071 17.0391 1.58579 17.4142C1.96086 17.7893 2.46957 18 3 18H12C12.5304 18 13.0391 17.7893 13.4142 17.4142C13.7893 17.0391 14 16.5304 14 16V15"/>
</mask>
<path d="M3 5V4V5ZM1 7H0H1ZM1 16H0H1ZM4 4H3V6H4V4ZM3 4C2.20435 4 1.44129 4.31607 0.87868 4.87868L2.29289 6.29289C2.48043 6.10536 2.73478 6 3 6V4ZM0.87868 4.87868C0.31607 5.44129 0 6.20435 0 7H2C2 6.73478 2.10536 6.48043 2.29289 6.29289L0.87868 4.87868ZM0 7V16H2V7H0ZM0 16C0 16.7956 0.31607 17.5587 0.87868 18.1213L2.29289 16.7071C2.10536 16.5196 2 16.2652 2 16H0ZM0.87868 18.1213C1.44129 18.6839 2.20435 19 3 19V17C2.73478 17 2.48043 16.8946 2.29289 16.7071L0.87868 18.1213ZM3 19H12V17H3V19ZM12 19C12.7957 19 13.5587 18.6839 14.1213 18.1213L12.7071 16.7071C12.5196 16.8946 12.2652 17 12 17V19ZM14.1213 18.1213C14.6839 17.5587 15 16.7957 15 16H13C13 16.2652 12.8946 16.5196 12.7071 16.7071L14.1213 18.1213ZM15 16V15H13V16H15Z" fill="#6B6B6B" mask="url(#path-1-outside-1_135_7457)"/>
<path d="M5.64708 9.64592L5.5 9.79248V10.0001V13.0001V13.5001H6H9H9.20763L9.35418 13.353L17.7386 4.93866C17.7386 4.93858 17.7387 4.9385 17.7388 4.93842C18.2263 4.45083 18.5001 3.78959 18.5001 3.10011C18.5001 2.41052 18.2262 1.74917 17.7386 1.26155C17.2509 0.773939 16.5896 0.5 15.9 0.5C15.2105 0.5 14.5493 0.773856 14.0617 1.26133C14.0616 1.26141 14.0615 1.26148 14.0614 1.26155L5.64708 9.64592Z" stroke="#6B6B6B"/>
</svg>
