<svg width="20" height="19" viewBox="0 0 20 19" fill="none" xmlns="http://www.w3.org/2000/svg">
<path fill-rule="evenodd" clip-rule="evenodd" d="M9.063 0.33095C9.30905 0.132732 9.6108 0.0175906 9.92545 0.00185828C10.2401 -0.013874 10.5517 0.0706011 10.816 0.243302L10.937 0.33095L15.249 3.80665C15.4594 3.97605 15.6336 4.18651 15.7613 4.42541C15.889 4.66432 15.9675 4.92673 15.992 5.19693L16 5.37928V7.91805H18C18.5046 7.91789 18.9906 8.10988 19.3605 8.45552C19.7305 8.80117 19.9572 9.27493 19.995 9.78184L20 9.93295V17.8918C20.0001 18.1649 19.9002 18.4284 19.7193 18.6318C19.5385 18.8352 19.2894 18.9642 19.02 18.994L18.9 19H1.1C0.828942 19.0001 0.567377 18.8994 0.365479 18.7172C0.163582 18.535 0.0355701 18.2841 0.00600014 18.0127L1.00268e-07 17.8918V9.93295C-0.000159579 9.42462 0.190406 8.93501 0.533497 8.56227C0.876588 8.18953 1.34684 7.96122 1.85 7.92309L2 7.91805H4V5.37928C3.99998 5.10796 4.05436 4.83943 4.15987 4.58979C4.26537 4.34016 4.41984 4.11456 4.614 3.92654L4.751 3.80564L9.063 0.33095ZM10 2.15544L6 5.37928V16.9851H14V5.37928L10 2.15544ZM18 9.93295H16V16.9851H18V9.93295ZM4 9.93295H2V16.9851H4V9.93295ZM10 5.90315C10.394 5.90315 10.7841 5.98133 11.1481 6.13322C11.512 6.2851 11.8427 6.50773 12.1213 6.78838C12.3999 7.06903 12.6209 7.40221 12.7716 7.7689C12.9224 8.13559 13 8.5286 13 8.9255C13 9.3224 12.9224 9.71542 12.7716 10.0821C12.6209 10.4488 12.3999 10.782 12.1213 11.0626C11.8427 11.3433 11.512 11.5659 11.1481 11.7178C10.7841 11.8697 10.394 11.9479 10 11.9479C9.20435 11.9479 8.44129 11.6294 7.87868 11.0626C7.31607 10.4958 7 9.72708 7 8.9255C7 8.12393 7.31607 7.35518 7.87868 6.78838C8.44129 6.22158 9.20435 5.90315 10 5.90315ZM10 7.91805C9.73478 7.91805 9.48043 8.02419 9.29289 8.21313C9.10536 8.40206 9 8.65831 9 8.9255C9 9.19269 9.10536 9.44894 9.29289 9.63788C9.48043 9.82681 9.73478 9.93295 10 9.93295C10.2652 9.93295 10.5196 9.82681 10.7071 9.63788C10.8946 9.44894 11 9.19269 11 8.9255C11 8.65831 10.8946 8.40206 10.7071 8.21313C10.5196 8.02419 10.2652 7.91805 10 7.91805Z" fill="#565656"/>
</svg>
