<svg width="20" height="22" viewBox="0 0 20 22" fill="none" xmlns="http://www.w3.org/2000/svg">
<path d="M15 7.33333C15 10.0344 12.7625 12.2222 10 12.2222C7.2375 12.2222 5 10.0344 5 7.33333L5.00485 7.29277C5.08431 6.62891 4.7356 5.98733 4.13531 5.69291C2.96022 5.11657 2.96128 3.44115 4.1371 2.86631L9.12158 0.429449C9.67585 0.158474 10.3242 0.158475 10.8784 0.42945L17.6284 3.72945C18.3148 4.065 18.75 4.76224 18.75 5.52622V9.76389C18.75 10.1091 18.4702 10.3889 18.125 10.3889C17.7798 10.3889 17.5 10.1091 17.5 9.76389V6.92729C17.5 5.98728 16.5141 5.37316 15.6704 5.7876C15.1864 6.02533 14.9054 6.54279 14.9695 7.07818L15 7.33333ZM10 14.6667C15.525 14.6667 20 16.8544 20 19.5556V20C20 21.1046 19.1046 22 18 22H2C0.895431 22 0 21.1046 0 20V19.5556C0 16.8544 4.475 14.6667 10 14.6667Z" fill="#565656"/>
</svg>
