<svg width="39" height="44" viewBox="0 0 39 44" fill="none" xmlns="http://www.w3.org/2000/svg">
<path d="M29.25 14.6667C29.25 20.0689 24.8869 24.4444 19.5 24.4444C14.1131 24.4444 9.75 20.0689 9.75 14.6667L9.85596 13.7586C9.95334 12.9241 9.51877 12.1177 8.7682 11.7401L5.99499 10.3451C4.52562 9.60596 4.52697 7.50785 5.99729 6.77059L18.6035 0.449509C19.1677 0.166622 19.8323 0.166622 20.3965 0.449509L35.459 8.00222C36.1354 8.3414 36.5625 9.03333 36.5625 9.79005V19.559C36.5625 20.2321 36.0168 20.7778 35.3438 20.7778C34.6707 20.7778 34.125 20.2321 34.125 19.559V13.0249C34.125 11.5354 32.5553 10.5686 31.2251 11.2387L30.2306 11.7398C29.4807 12.1176 29.0466 12.9236 29.1439 13.7577L29.25 14.6667ZM19.5 29.3333C30.2738 29.3333 39 33.7089 39 39.1111V42C39 43.1046 38.1046 44 37 44H2C0.89543 44 0 43.1046 0 42V39.1111C0 33.7089 8.72625 29.3333 19.5 29.3333Z" fill="#6463D6"/>
</svg>
