<svg width="41" height="52" viewBox="0 0 41 52" fill="none" xmlns="http://www.w3.org/2000/svg">
<path d="M39.5973 37.0636C37.4759 34.238 34.4471 32.2142 31.0104 31.3261L30.9033 31.3031L28.4274 35.449C28.4257 36.001 28.204 36.5299 27.8105 36.9203C27.417 37.3106 26.8838 37.5307 26.3274 37.5323C25.1724 37.5323 24.2274 36.5948 23.1249 33.8365V33.7698C23.1249 33.0791 22.8483 32.4168 22.3561 31.9284C21.8638 31.44 21.1961 31.1656 20.4999 31.1656C19.8037 31.1656 19.136 31.44 18.6437 31.9284C18.1515 32.4168 17.8749 33.0791 17.8749 33.7698V33.8386V33.8344C16.6989 36.5948 15.7455 37.5302 14.5926 37.5302C14.0362 37.5286 13.503 37.3086 13.1095 36.9182C12.716 36.5279 12.4943 35.9989 12.4926 35.4469L10.0944 31.2927C6.63411 32.1659 3.57758 34.1839 1.4298 37.0136L1.4004 37.0531C0.549062 38.4345 0.0750048 40.0119 0.0249023 41.6302V41.6448C0.0354023 41.9573 0.0249023 42.3219 0.0249023 42.6865V46.8531C0.0249023 47.9582 0.467401 49.018 1.25505 49.7994C2.04271 50.5808 3.11099 51.0198 4.2249 51.0198H36.7749C37.8888 51.0198 38.9571 50.5808 39.7448 49.7994C40.5324 49.018 40.9749 47.9582 40.9749 46.8531V42.6865C40.9749 42.324 40.9644 41.9573 40.9749 41.6448C40.922 40.0081 40.4399 38.4133 39.5763 37.0177L39.5994 37.0594L39.5973 37.0636ZM9.4728 12.0531C9.4728 18.1365 13.2948 27.074 20.4978 27.074C27.5748 27.074 31.5228 18.1365 31.5228 12.0531V11.9177C31.5228 10.4814 31.2376 9.05912 30.6836 7.73212C30.1295 6.40513 29.3174 5.19938 28.2937 4.18374C27.2699 3.1681 26.0545 2.36245 24.7169 1.81279C23.3793 1.26313 21.9456 0.980225 20.4978 0.980225C19.05 0.980225 17.6163 1.26313 16.2787 1.81279C14.9411 2.36245 13.7257 3.1681 12.702 4.18374C11.6782 5.19938 10.8661 6.40513 10.312 7.73212C9.75797 9.05912 9.4728 10.4814 9.4728 11.9177V12.0594V12.0531Z" fill="#F99C30"/>
</svg>
