<svg width="18" height="22" viewBox="0 0 18 22" fill="none" xmlns="http://www.w3.org/2000/svg">
<path d="M17.3945 15.8641C16.462 14.6219 15.1306 13.7321 13.62 13.3416L13.5729 13.3315L12.4846 15.1543C12.4839 15.397 12.3864 15.6295 12.2134 15.8011C12.0405 15.9727 11.8061 16.0695 11.5615 16.0702C11.0538 16.0702 10.6385 15.658 10.1538 14.4453V14.416C10.1538 14.1124 10.0323 13.8211 9.81589 13.6064C9.5995 13.3917 9.30602 13.2711 9 13.2711C8.69398 13.2711 8.4005 13.3917 8.18411 13.6064C7.96772 13.8211 7.84615 14.1124 7.84615 14.416V14.4462V14.4444C7.32923 15.658 6.91015 16.0693 6.40338 16.0693C6.15879 16.0686 5.92443 15.9718 5.75148 15.8002C5.57853 15.6286 5.48104 15.396 5.48031 15.1533L4.42615 13.327C2.90514 13.7108 1.56162 14.5981 0.617539 15.8421L0.604615 15.8595C0.2304 16.4668 0.0220231 17.1604 0 17.8719V17.8783C0.00461538 18.0157 0 18.1759 0 18.3362V20.1681C0 20.654 0.194505 21.1199 0.540726 21.4635C0.886947 21.807 1.35652 22 1.84615 22H16.1538C16.6435 22 17.1131 21.807 17.4593 21.4635C17.8055 21.1199 18 20.654 18 20.1681V18.3362C18 18.1769 17.9954 18.0157 18 17.8783C17.9767 17.1587 17.7649 16.4575 17.3852 15.844L17.3954 15.8623L17.3945 15.8641ZM4.15292 4.86823C4.15292 7.54278 5.83292 11.4722 8.99908 11.4722C12.1098 11.4722 13.8452 7.54278 13.8452 4.86823V4.80869C13.8452 4.17721 13.7199 3.5519 13.4763 2.96849C13.2328 2.38507 12.8758 1.85496 12.4258 1.40843C11.9758 0.961905 11.4416 0.607699 10.8536 0.36604C10.2657 0.124381 9.63548 0 8.99908 0C8.36267 0 7.7325 0.124381 7.14453 0.36604C6.55657 0.607699 6.02234 0.961905 5.57233 1.40843C5.12232 1.85496 4.76536 2.38507 4.52181 2.96849C4.27827 3.5519 4.15292 4.17721 4.15292 4.80869V4.87098V4.86823Z" fill="#565656"/>
</svg>
